<svg width="122" height="26" viewBox="0 0 122 26" fill="none" xmlns="http://www.w3.org/2000/svg">
<path d="M20.2818 24L19.9537 22.6055H18.5005L18.1724 24L16.4263 23.9941L18.4009 15.5977H20.0591L22.022 23.9941L20.2818 24ZM19.5552 20.9004L19.2271 19.5059L18.899 20.9004H19.5552ZM25.9417 24H24.2366V22.2656H25.9417V24ZM32.0118 24L31.6837 22.6055H30.2305L29.9024 24L28.1563 23.9941L30.1309 15.5977H31.7891L33.752 23.9941L32.0118 24ZM31.2852 20.9004L30.9571 19.5059L30.629 20.9004H31.2852ZM37.6717 24H35.9666V22.2656H37.6717V24ZM43.7418 24L43.4137 22.6055H41.9605L41.6324 24L39.8863 23.9941L41.8609 15.5977H43.5191L45.482 23.9941L43.7418 24ZM43.0152 20.9004L42.6871 19.5059L42.359 20.9004H43.0152ZM55.2374 24.0059H53.5382V15.5918H55.2374V24.0059ZM64.3192 24.0059H62.62V20.7598L61.2958 23.9941H60.4755L59.1512 20.7598V24.0059H57.4462V15.6094H58.87L60.8856 20.5195L62.8954 15.6094H64.3192V24.0059ZM68.233 24.0059H66.5338V15.5918H70.1198C70.5495 15.5918 70.9186 15.7461 71.2272 16.0547C71.5397 16.3594 71.6959 16.7305 71.6959 17.168V19.0664C71.6959 19.5 71.5416 19.8711 71.233 20.1797C70.9284 20.4883 70.5573 20.6426 70.1198 20.6426H68.233V24.0059ZM69.9967 18.9375V17.2969H68.233V18.9375H69.9967ZM78.7973 24.0059H73.9105V15.5918H78.7973V17.2969H75.6098V18.9492H78.3109V20.6543H75.6098V22.3008H78.7973V24.0059ZM86.2736 24.0176L84.5744 23.9883L84.5861 23.5312C84.5939 23.3867 84.5978 23.1348 84.5978 22.7754C84.5978 22.2012 84.5334 21.7422 84.4044 21.3984C84.2248 20.9062 83.883 20.6543 83.3791 20.6426H82.7052V24.0059H81.006V15.5918H84.5978C85.0236 15.5918 85.3908 15.7461 85.6994 16.0547C86.0119 16.3594 86.1681 16.7305 86.1681 17.168V19.0664C86.1681 19.4766 86.0314 19.8281 85.758 20.1211C85.9142 20.3828 86.0294 20.6621 86.1037 20.959C86.1818 21.252 86.2326 21.5469 86.256 21.8438C86.2794 22.1367 86.2912 22.4121 86.2912 22.6699L86.2736 24.0176ZM84.4689 18.9375V17.2969H82.7052V18.9375H84.4689ZM90.1991 24.0059H88.4999V15.5918H90.1991V24.0059ZM96.2634 24L95.9352 22.6055H94.4821L94.154 24L92.4079 23.9941L94.3825 15.5977H96.0407L98.0036 23.9941L96.2634 24ZM95.5368 20.9004L95.2087 19.5059L94.8805 20.9004H95.5368ZM105.105 24.0059H100.218V15.5918H101.917V22.3008H105.105V24.0059Z" fill="white"/>
<path d="M30.2174 10H27.9957V3.65723H30.2174C30.5266 3.65723 30.8066 3.73372 31.0572 3.88672C31.3111 4.03646 31.513 4.23828 31.6627 4.49219C31.8124 4.74284 31.8873 5.02116 31.8873 5.32715V8.33008C31.8873 8.63281 31.8124 8.91113 31.6627 9.16504C31.5162 9.41569 31.316 9.61751 31.0621 9.77051C30.8115 9.9235 30.5299 10 30.2174 10ZM30.0709 8.56934C30.1783 8.56934 30.2695 8.5319 30.3443 8.45703C30.4192 8.38216 30.4566 8.29102 30.4566 8.18359V5.47363C30.4566 5.36947 30.4192 5.27995 30.3443 5.20508C30.2695 5.12695 30.1783 5.08789 30.0709 5.08789H29.4264V8.56934H30.0709ZM37.4193 10H33.7328V3.65723H37.4193V5.08789H35.1635V6.1377H37.0531V7.51953H35.1635V8.56934H37.4193V10ZM41.9992 10H40.7492L39.2648 3.65723H40.7248L41.3742 6.80664L42.0236 3.65723H43.4885L41.9992 10ZM49.0205 10H45.334V3.65723H49.0205V5.08789H46.7646V6.1377H48.6543V7.51953H46.7646V8.56934H49.0205V10ZM54.5477 10H50.866V3.65723H52.2918V8.56934H54.5477V10ZM59.0787 10H57.5943C57.2591 10 56.9742 9.88281 56.7398 9.64844C56.5055 9.41081 56.3883 9.12598 56.3883 8.79395V4.86328C56.3883 4.53125 56.5055 4.24805 56.7398 4.01367C56.9775 3.77604 57.2623 3.65723 57.5943 3.65723H59.0787C59.4107 3.65723 59.6939 3.77604 59.9283 4.01367C60.166 4.24805 60.2848 4.53125 60.2848 4.86328V8.79395C60.2848 9.12598 60.1676 9.41081 59.9332 9.64844C59.6988 9.88281 59.414 10 59.0787 10ZM58.8541 8.56934V5.08789H57.8189V8.56934H58.8541ZM63.5561 10H62.1254V3.65723H64.8305C65.1527 3.65723 65.4311 3.77279 65.6654 4.00391C65.8998 4.23503 66.017 4.51497 66.017 4.84375V6.2793C66.017 6.60482 65.9014 6.88477 65.6703 7.11914C65.4392 7.35026 65.1592 7.46582 64.8305 7.46582H63.5561V10ZM64.5912 6.03516V5.08789H63.5561V6.03516H64.5912ZM71.549 10H67.8625V3.65723H71.549V5.08789H69.2932V6.1377H71.1828V7.51953H69.2932V8.56934H71.549V10ZM75.6162 10H73.3945V3.65723H75.6162C75.9255 3.65723 76.2054 3.73372 76.4561 3.88672C76.71 4.03646 76.9118 4.23828 77.0615 4.49219C77.2113 4.74284 77.2861 5.02116 77.2861 5.32715V8.33008C77.2861 8.63281 77.2113 8.91113 77.0615 9.16504C76.915 9.41569 76.7148 9.61751 76.4609 9.77051C76.2103 9.9235 75.9287 10 75.6162 10ZM75.4697 8.56934C75.5771 8.56934 75.6683 8.5319 75.7432 8.45703C75.818 8.38216 75.8555 8.29102 75.8555 8.18359V5.47363C75.8555 5.36947 75.818 5.27995 75.7432 5.20508C75.6683 5.12695 75.5771 5.08789 75.4697 5.08789H74.8252V8.56934H75.4697ZM86.7047 10H83.9996V3.65723H86.7047C87.0302 3.65723 87.3102 3.77279 87.5445 4.00391C87.7789 4.23503 87.8961 4.51497 87.8961 4.84375V6.05469C87.8961 6.34115 87.818 6.59993 87.6617 6.83105C87.818 7.06217 87.8961 7.32096 87.8961 7.60742V8.81348C87.8961 9.14225 87.7789 9.4222 87.5445 9.65332C87.3134 9.88444 87.0335 10 86.7047 10ZM86.4654 8.56934V7.60742C86.4654 7.57161 86.4524 7.54069 86.4264 7.51465C86.4003 7.48861 86.371 7.47559 86.3385 7.47559H85.4303V8.56934H86.4654ZM86.3385 6.18164C86.371 6.18164 86.4003 6.17025 86.4264 6.14746C86.4524 6.12142 86.4654 6.09049 86.4654 6.05469V5.08789H85.4303V6.18164H86.3385ZM92.1928 10H90.8109V7.56836L89.3949 3.66211L90.8061 3.65723L91.5043 5.73242L92.2025 3.65723L93.6137 3.66211L92.1928 7.58301V10Z" fill="#C00203"/>
<g clip-path="url(#clip0_93_687)">
<path d="M106.475 16.9042C106.742 16.9167 106.81 17.1437 106.815 17.25H107.188C107.171 16.8375 106.877 16.5854 106.469 16.5854C106.008 16.5854 105.667 16.875 105.667 17.5292C105.667 17.9333 105.86 18.4125 106.467 18.4125C106.929 18.4125 107.177 18.0687 107.183 17.7979H106.81C106.804 17.9208 106.717 18.0854 106.471 18.0979C106.198 18.0896 106.083 17.8771 106.083 17.5292C106.083 16.9271 106.35 16.9083 106.475 16.9042ZM106.5 15.4167C105.35 15.4167 104.417 16.35 104.417 17.5C104.417 18.65 105.35 19.5833 106.5 19.5833C107.65 19.5833 108.583 18.65 108.583 17.5C108.583 16.35 107.65 15.4167 106.5 15.4167ZM106.5 19.1667C105.581 19.1667 104.833 18.4187 104.833 17.5C104.833 16.5812 105.581 15.8333 106.5 15.8333C107.419 15.8333 108.167 16.5812 108.167 17.5C108.167 18.4187 107.419 19.1667 106.5 19.1667Z" fill="#C00203"/>
</g>
<defs>
<clipPath id="clip0_93_687">
<rect width="5" height="5" fill="white" transform="translate(104 15)"/>
</clipPath>
</defs>
</svg>
