<svg width="133" height="132" viewBox="0 0 133 132" fill="none" xmlns="http://www.w3.org/2000/svg">
<path d="M105.569 27.005C100.488 21.9116 94.4366 17.8732 87.767 15.1253C81.0973 12.3774 73.9432 10.9751 66.7217 11C36.4642 11 11.8038 35.475 11.8038 65.505C11.8038 75.13 14.353 84.48 19.1188 92.73L11.3605 121L40.4542 113.41C48.4896 117.755 57.5226 120.065 66.7217 120.065C96.9792 120.065 121.64 95.59 121.64 65.56C121.64 50.985 115.932 37.29 105.569 27.005ZM66.7217 110.825C58.5201 110.825 50.4846 108.625 43.4467 104.5L41.7842 103.51L24.4942 108.02L29.0938 91.3L27.9855 89.595C23.4288 82.3734 21.0093 74.0259 21.003 65.505C21.003 40.535 41.5071 20.185 66.6663 20.185C78.858 20.185 90.3292 24.915 98.9188 33.495C103.172 37.6968 106.542 42.6947 108.835 48.1989C111.128 53.7031 112.297 59.6041 112.274 65.56C112.385 90.53 91.8809 110.825 66.7217 110.825ZM91.7701 76.945C90.3846 76.285 83.6238 72.985 82.4046 72.49C81.1301 72.05 80.2434 71.83 79.3013 73.15C78.3592 74.525 75.7546 77.605 74.9788 78.485C74.203 79.42 73.3717 79.53 71.9863 78.815C70.6009 78.155 66.1676 76.67 60.9584 72.05C56.8576 68.42 54.1421 63.965 53.3109 62.59C52.5351 61.215 53.2001 60.5 53.9205 59.785C54.5301 59.18 55.3059 58.19 55.9709 57.42C56.6359 56.65 56.913 56.045 57.3563 55.165C57.7996 54.23 57.578 53.46 57.2455 52.8C56.913 52.14 54.1421 45.43 53.0338 42.68C51.9255 40.04 50.7617 40.37 49.9305 40.315H47.2705C46.3284 40.315 44.8876 40.645 43.613 42.02C42.3938 43.395 38.8471 46.695 38.8471 53.405C38.8471 60.115 43.7792 66.605 44.4442 67.485C45.1092 68.42 54.1421 82.17 67.8855 88.055C71.1551 89.485 73.7042 90.31 75.6992 90.915C78.9688 91.96 81.9613 91.795 84.3442 91.465C87.0042 91.08 92.4905 88.165 93.5988 84.975C94.7626 81.785 94.7626 79.09 94.3746 78.485C93.9867 77.88 93.1555 77.605 91.7701 76.945Z" fill="#C00203"/>
</svg>
