<svg width="129" height="129" viewBox="0 0 129 129" fill="none" xmlns="http://www.w3.org/2000/svg">
<path d="M120.722 32.25C116.584 34.1312 112.122 35.3675 107.5 35.9588C112.23 33.11 115.885 28.595 117.605 23.1662C113.144 25.8537 108.199 27.735 102.985 28.81C98.7387 24.1875 92.7725 21.5 86 21.5C73.3687 21.5 63.0487 31.82 63.0487 44.5587C63.0487 46.3862 63.2637 48.16 63.64 49.8263C44.505 48.8588 27.4662 39.6675 16.125 25.7462C14.1362 29.1325 13.0075 33.11 13.0075 37.3025C13.0075 45.3113 17.0387 52.4062 23.2737 56.4375C19.4575 56.4375 15.91 55.3625 12.7925 53.75V53.9112C12.7925 65.0912 20.7475 74.4437 31.2825 76.54C27.9001 77.4656 24.3492 77.5944 20.9087 76.9163C22.3686 81.4983 25.2277 85.5077 29.0842 88.3807C32.9406 91.2538 37.6005 92.8461 42.4087 92.9338C34.2582 99.3861 24.1552 102.874 13.76 102.824C11.9325 102.824 10.105 102.716 8.27747 102.501C18.49 109.059 30.6375 112.875 43.645 112.875C86 112.875 109.274 77.7225 109.274 47.2462C109.274 46.225 109.274 45.2575 109.22 44.2362C113.735 41.0112 117.605 36.9263 120.722 32.25Z" fill="#C00203"/>
</svg>
