<svg width="133" height="133" viewBox="0 0 133 133" fill="none" xmlns="http://www.w3.org/2000/svg">
<path d="M43.225 11.0833H89.775C107.508 11.0833 121.917 25.4916 121.917 43.225V89.775C121.917 98.2995 118.53 106.475 112.503 112.503C106.475 118.53 98.2995 121.917 89.775 121.917H43.225C25.4917 121.917 11.0834 107.508 11.0834 89.775V43.225C11.0834 34.7005 14.4697 26.5251 20.4975 20.4974C26.5252 14.4697 34.7005 11.0833 43.225 11.0833ZM42.1167 22.1666C36.8256 22.1666 31.7513 24.2685 28.0099 28.0099C24.2686 31.7512 22.1667 36.8256 22.1667 42.1166V90.8833C22.1667 101.911 31.0888 110.833 42.1167 110.833H90.8834C96.1744 110.833 101.249 108.731 104.99 104.99C108.732 101.249 110.833 96.1744 110.833 90.8833V42.1166C110.833 31.0887 101.911 22.1666 90.8834 22.1666H42.1167ZM95.5938 30.4791C97.431 30.4791 99.1929 31.209 100.492 32.508C101.791 33.8071 102.521 35.5691 102.521 37.4062C102.521 39.2434 101.791 41.0053 100.492 42.3044C99.1929 43.6035 97.431 44.3333 95.5938 44.3333C93.7566 44.3333 91.9947 43.6035 90.6956 42.3044C89.3965 41.0053 88.6667 39.2434 88.6667 37.4062C88.6667 35.5691 89.3965 33.8071 90.6956 32.508C91.9947 31.209 93.7566 30.4791 95.5938 30.4791ZM66.5 38.7916C73.8487 38.7916 80.8965 41.7109 86.0928 46.9072C91.2891 52.1035 94.2084 59.1513 94.2084 66.5C94.2084 73.8487 91.2891 80.8964 86.0928 86.0927C80.8965 91.289 73.8487 94.2083 66.5 94.2083C59.1513 94.2083 52.1036 91.289 46.9073 86.0927C41.711 80.8964 38.7917 73.8487 38.7917 66.5C38.7917 59.1513 41.711 52.1035 46.9073 46.9072C52.1036 41.7109 59.1513 38.7916 66.5 38.7916ZM66.5 49.875C62.0908 49.875 57.8622 51.6265 54.7444 54.7443C51.6266 57.8621 49.875 62.0908 49.875 66.5C49.875 70.9092 51.6266 75.1378 54.7444 78.2556C57.8622 81.3734 62.0908 83.125 66.5 83.125C70.9093 83.125 75.1379 81.3734 78.2557 78.2556C81.3735 75.1378 83.125 70.9092 83.125 66.5C83.125 62.0908 81.3735 57.8621 78.2557 54.7443C75.1379 51.6265 70.9093 49.875 66.5 49.875Z" fill="#C00203"/>
</svg>
