<svg width="16" height="22" viewBox="0 0 16 22" fill="none" xmlns="http://www.w3.org/2000/svg">
<path d="M2 19.375H5V11.875H11V19.375H14V8.125L8 2.5L2 8.125V19.375ZM2 21.875C1.45 21.875 0.979333 21.6304 0.588 21.1413C0.196 20.6513 0 20.0625 0 19.375V8.125C0 7.72917 0.0709998 7.35417 0.213 7C0.354333 6.64583 0.55 6.35417 0.8 6.125L6.8 0.5C6.98333 0.333333 7.175 0.208333 7.375 0.125C7.575 0.0416665 7.78333 0 8 0C8.21667 0 8.425 0.0416665 8.625 0.125C8.825 0.208333 9.01667 0.333333 9.2 0.5L15.2 6.125C15.45 6.35417 15.646 6.64583 15.788 7C15.9293 7.35417 16 7.72917 16 8.125V19.375C16 20.0625 15.8043 20.6513 15.413 21.1413C15.021 21.6304 14.55 21.875 14 21.875H9V14.375H7V21.875H2Z" fill="#262626"/>
</svg>
