<svg width="21" height="21" viewBox="0 0 21 21" fill="none" xmlns="http://www.w3.org/2000/svg">
<path d="M4.375 18.375C3.89375 18.375 3.48163 18.2035 3.13863 17.8605C2.79563 17.5175 2.62442 17.1057 2.625 16.625V13.125H4.375V16.625H16.625V4.375H4.375V7.875H2.625V4.375C2.625 3.89375 2.7965 3.48163 3.1395 3.13863C3.4825 2.79563 3.89433 2.62442 4.375 2.625H16.625C17.1063 2.625 17.5184 2.7965 17.8614 3.1395C18.2044 3.4825 18.3756 3.89433 18.375 4.375V16.625C18.375 17.1063 18.2035 17.5184 17.8605 17.8614C17.5175 18.2044 17.1057 18.3756 16.625 18.375H4.375ZM9.1875 14.875L7.9625 13.6063L10.1938 11.375H2.625V9.625H10.1938L7.9625 7.39375L9.1875 6.125L13.5625 10.5L9.1875 14.875Z" fill="black"/>
</svg>
