<svg width="34" height="34" viewBox="0 0 34 34" fill="none" xmlns="http://www.w3.org/2000/svg">
<path d="M8.49996 31.1667C7.7208 31.1667 7.05354 30.889 6.49821 30.3337C5.94288 29.7783 5.66568 29.1116 5.66663 28.3333V5.66666C5.66663 4.8875 5.94429 4.22025 6.49963 3.66491C7.05496 3.10958 7.72174 2.83239 8.49996 2.83333H19.8333L28.3333 11.3333V17H25.5V12.75H18.4166V5.66666H8.49996V28.3333H17V31.1667H8.49996ZM25.925 20.5771L27.4479 22.1L21.9583 27.5542V29.0417H23.4458L28.9354 23.5875L30.4229 25.075L24.3312 31.1667H19.8333V26.6687L25.925 20.5771ZM30.4229 25.075L25.925 20.5771L27.9791 18.5229C28.2389 18.2632 28.5694 18.1333 28.9708 18.1333C29.3722 18.1333 29.7027 18.2632 29.9625 18.5229L32.477 21.0375C32.7368 21.2972 32.8666 21.6278 32.8666 22.0292C32.8666 22.4306 32.7368 22.7611 32.477 23.0208L30.4229 25.075Z" fill="#C00203"/>
</svg>
