<svg width="33" height="33" viewBox="0 0 33 33" fill="none" xmlns="http://www.w3.org/2000/svg">
<path d="M16.4465 6.50943C17.6325 6.50943 18.7699 6.98056 19.6085 7.81916C20.4471 8.65777 20.9182 9.79516 20.9182 10.9811C20.9182 12.1671 20.4471 13.3045 19.6085 14.1431C18.7699 14.9817 17.6325 15.4528 16.4465 15.4528C15.2606 15.4528 14.1232 14.9817 13.2846 14.1431C12.446 13.3045 11.9748 12.1671 11.9748 10.9811C11.9748 9.79516 12.446 8.65777 13.2846 7.81916C14.1232 6.98056 15.2606 6.50943 16.4465 6.50943ZM16.4465 20.1887C19.3482 20.1887 21.9245 20.7784 23.7384 21.6853C25.6118 22.622 26.3899 23.7314 26.3899 24.6604V26.3962H6.50314V24.6604C6.50314 23.7314 7.28131 22.622 9.15472 21.6853C10.9686 20.7784 13.5449 20.1887 16.4465 20.1887Z" stroke="#C00203" stroke-width="2"/>
</svg>
