<svg width="32" height="32" viewBox="0 0 32 32" fill="none" xmlns="http://www.w3.org/2000/svg">
<path d="M9.89884 11.9832H10.8988V10.9832V8.39938C10.8988 6.95139 11.4741 5.56271 12.4979 4.53883C13.5218 3.51495 14.9105 2.93974 16.3585 2.93974C17.0755 2.93974 17.7854 3.08095 18.4478 3.35533C19.1102 3.6297 19.7121 4.03185 20.219 4.53883C20.726 5.0458 21.1282 5.64767 21.4025 6.31006C21.6769 6.97246 21.8181 7.68241 21.8181 8.39938V10.9832V11.9832H22.8181H24.1101C24.5301 11.9832 24.933 12.1501 25.23 12.4471C25.527 12.7442 25.6939 13.147 25.6939 13.5671V26.4864C25.6939 26.9064 25.527 27.3093 25.23 27.6063C24.933 27.9034 24.5301 28.0702 24.1101 28.0702H8.60691C8.18685 28.0702 7.78399 27.9034 7.48696 27.6063C7.18993 27.3093 7.02306 26.9064 7.02306 26.4864V13.5671C7.02306 13.147 7.18993 12.7442 7.48696 12.4471C7.78399 12.1501 8.18685 11.9832 8.60691 11.9832H9.89884ZM11.4827 11.9832H12.4827H20.2343H21.2343V10.9832V8.39938C21.2343 7.10624 20.7206 5.86606 19.8062 4.95168C18.8918 4.03729 17.6516 3.52359 16.3585 3.52359C15.0653 3.52359 13.8252 4.03729 12.9108 4.95168C11.9964 5.86606 11.4827 7.10624 11.4827 8.39938V10.9832V11.9832ZM16.3585 23.6106C17.309 23.6106 18.2206 23.233 18.8927 22.5609C19.5648 21.8888 19.9423 20.9772 19.9423 20.0267C19.9423 19.0762 19.5648 18.1647 18.8927 17.4926C18.2206 16.8205 17.309 16.4429 16.3585 16.4429C15.408 16.4429 14.4964 16.8205 13.8243 17.4926C13.1522 18.1647 12.7746 19.0762 12.7746 20.0267C12.7746 20.9772 13.1522 21.8888 13.8243 22.5609C14.4964 23.233 15.408 23.6106 16.3585 23.6106Z" stroke="#C00203" stroke-width="2"/>
</svg>
