<svg width="37" height="37" viewBox="0 0 37 37" fill="none" xmlns="http://www.w3.org/2000/svg">
<path d="M6.16667 27.75C5.72986 27.75 5.36397 27.602 5.069 27.306C4.773 27.011 4.625 26.6451 4.625 26.2083C4.625 25.7715 4.773 25.4056 5.069 25.1107C5.36397 24.8147 5.72986 24.6667 6.16667 24.6667H30.8333C31.2701 24.6667 31.636 24.8147 31.931 25.1107C32.227 25.4056 32.375 25.7715 32.375 26.2083C32.375 26.6451 32.227 27.011 31.931 27.306C31.636 27.602 31.2701 27.75 30.8333 27.75H6.16667ZM6.16667 20.0417C5.72986 20.0417 5.36397 19.8937 5.069 19.5977C4.773 19.3027 4.625 18.9368 4.625 18.5C4.625 18.0632 4.773 17.6968 5.069 17.4008C5.36397 17.1058 5.72986 16.9583 6.16667 16.9583H30.8333C31.2701 16.9583 31.636 17.1058 31.931 17.4008C32.227 17.6968 32.375 18.0632 32.375 18.5C32.375 18.9368 32.227 19.3027 31.931 19.5977C31.636 19.8937 31.2701 20.0417 30.8333 20.0417H6.16667ZM6.16667 12.3333C5.72986 12.3333 5.36397 12.1858 5.069 11.8909C4.773 11.5949 4.625 11.2285 4.625 10.7917C4.625 10.3549 4.773 9.98846 5.069 9.69246C5.36397 9.39749 5.72986 9.25 6.16667 9.25H30.8333C31.2701 9.25 31.636 9.39749 31.931 9.69246C32.227 9.98846 32.375 10.3549 32.375 10.7917C32.375 11.2285 32.227 11.5949 31.931 11.8909C31.636 12.1858 31.2701 12.3333 30.8333 12.3333H6.16667Z" fill="white"/>
</svg>
