<svg width="20" height="20" viewBox="0 0 20 20" fill="none" xmlns="http://www.w3.org/2000/svg">
<path d="M4.24065 13.3898C3.77501 13.3915 3.3203 13.5311 2.93391 13.791C2.54751 14.0508 2.24674 14.4193 2.06954 14.8499C1.89235 15.2805 1.84667 15.754 1.93827 16.2105C2.02987 16.6671 2.25464 17.0863 2.58423 17.4152C2.91381 17.7441 3.33344 17.9681 3.79017 18.0588C4.24689 18.1494 4.72025 18.1028 5.15051 17.9248C5.58077 17.7467 5.94865 17.4452 6.20773 17.0583C6.46682 16.6714 6.6055 16.2164 6.60627 15.7508C6.60431 15.1244 6.3543 14.5243 5.91095 14.0819C5.4676 13.6394 4.86702 13.3906 4.24065 13.3898Z" fill="black"/>
<path d="M1.875 7.29179V10.6727C3.90625 10.6727 5.85703 11.2738 7.2918 12.7082C8.72656 14.1426 9.32305 16.0895 9.32305 18.125H12.7082C12.7082 12.2047 7.79961 7.29179 1.875 7.29179Z" fill="black"/>
<path d="M1.875 1.875V5.25625C9.11133 5.25625 14.7352 10.8844 14.7352 18.125H18.125C18.125 9.16641 10.8465 1.875 1.875 1.875Z" fill="black"/>
</svg>
